# xmcd
#
# Track frame offsets: 
#        150
#        16627
#        33061
#        55313
#        69009
#        83050
#        97259
#        116312
#        131515
#        148263
#
# Disc length: 2212 seconds
#
# Revision: 0
# Processed by: cddbd v1.4PL0 Copyright (c) Steve Scherf et al.
# Submitted via: ExactAudioCopy v0.90b4
#
DISCID=7808a20a
DTITLE=Southern Pacific - KillBilly Hill
DYEAR=1986
DGENRE=Rock
TTITLE0=Road Song
TTITLE1=A Girl Like Emmylou
TTITLE2=Pink Cadillac
TTITLE3=I Still Look For You
TTITLE4=Pull Your Hat Down Tight
TTITLE5=Killbilly Hill
TTITLE6=Don't Let Go Of My Heart
TTITLE7=What's It Gonna Take
TTITLE8=Hearts On The Borderline
TTITLE9=Bluegrass Blues
EXTD=
EXTT0=
EXTT1=
EXTT2=
EXTT3=
EXTT4=
EXTT5=
EXTT6=
EXTT7=
EXTT8=
EXTT9=
PLAYORDER=
